<?xml version="1.0" standalone="no"?>
<!DOCTYPE svg>
<svg version="1.0" xmlns="http://www.w3.org/2000/svg"
 width="600.000000pt" height="531.000000pt" viewBox="0 0 600.000000 531.000000"
 preserveAspectRatio="xMidYMid meet">
<metadata>
Created by potrace 1.10, written by Peter Selinger 2001-2011
</metadata>
<g transform="translate(0.000000,531.000000) scale(0.100000,-0.100000)"
fill="#0ec008" stroke="none">
<path d="M2705 4765 c-388 -46 -731 -191 -1045 -442 -94 -76 -244 -222 -305
-297 -22 -28 -54 -66 -71 -85 -47 -55 -146 -207 -195 -301 -111 -211 -173
-397 -215 -655 -25 -151 -26 -516 -1 -660 32 -188 78 -357 123 -462 8 -17 14
-34 14 -38 0 -7 87 -183 111 -224 93 -160 270 -384 396 -501 102 -96 232 -200
308 -247 197 -123 341 -191 520 -246 294 -89 599 -117 895 -82 219 26 332 52
515 119 475 174 926 585 1157 1056 151 307 208 568 208 948 0 267 -26 444 -99
667 -49 151 -149 365 -207 442 -13 17 -24 34 -24 37 0 12 -115 162 -181 236
-149 169 -295 300 -454 405 -198 131 -378 213 -595 272 -244 67 -582 89 -855
58z m535 -741 c203 -37 373 -108 555 -232 44 -30 87 -62 97 -71 132 -129 176
-176 171 -184 -5 -8 -45 -38 -271 -203 -70 -50 -71 -50 -162 -15 -102 40 -135
52 -165 61 -16 4 -55 18 -85 30 -135 52 -166 60 -230 60 -37 0 -86 -6 -111
-14 -66 -21 -183 -46 -213 -46 -14 0 -66 -20 -115 -45 -49 -25 -96 -45 -105
-45 -8 0 -30 -6 -48 -14 -111 -47 -187 -57 -223 -31 -10 8 -78 71 -150 138
-71 68 -148 139 -169 159 l-39 35 38 42 c37 41 216 181 231 181 4 0 15 6 23
14 21 19 162 90 221 111 247 89 506 113 750 69z m-1142 -620 c86 -86 173 -168
195 -182 53 -35 140 -33 257 7 47 16 89 25 94 21 16 -15 -3 -58 -56 -126 -44
-58 -51 -74 -51 -111 0 -102 138 -163 278 -123 39 12 64 30 120 86 83 85 134
105 191 76 190 -98 490 -318 646 -474 111 -111 148 -170 148 -235 0 -38 -28
-99 -57 -126 -19 -17 -21 -16 -63 30 -24 27 -73 80 -110 118 -65 69 -81 92
-114 168 -14 33 -20 38 -44 35 -33 -4 -39 -25 -19 -70 8 -18 18 -40 21 -48 12
-30 33 -57 117 -150 121 -135 130 -148 123 -179 -7 -32 -70 -91 -98 -91 -12 0
-48 27 -86 66 -36 36 -96 88 -133 116 l-68 51 -21 -21 -21 -21 39 -38 c22 -21
77 -71 122 -111 45 -40 82 -81 82 -91 0 -27 -53 -71 -92 -77 -31 -5 -38 -2
-57 24 -12 17 -68 62 -124 99 -101 67 -103 68 -163 65 -58 -2 -62 -1 -105 39
-74 68 -132 83 -204 53 -39 -16 -65 -13 -65 8 -1 23 -44 66 -84 82 -76 31
-151 13 -204 -51 -20 -24 -44 -43 -53 -43 -10 0 -48 21 -86 47 -37 26 -135 92
-218 148 -82 56 -199 135 -260 177 -60 41 -141 96 -180 122 -102 69 -104 72
-93 148 34 249 123 469 272 671 28 37 54 67 59 67 4 0 79 -70 165 -156z m2070
0 c24 -36 47 -75 52 -87 6 -12 14 -29 19 -37 18 -28 64 -135 72 -165 4 -16 12
-43 17 -60 22 -63 42 -143 42 -163 0 -22 -38 -53 -254 -205 -29 -22 -68 -61
-86 -88 -27 -42 -84 -88 -95 -77 -2 2 -55 53 -117 113 -113 110 -286 248 -428
340 -180 116 -180 116 -175 139 9 35 -26 50 -88 36 -149 -33 -180 -48 -224
-105 -61 -79 -83 -90 -174 -90 -68 0 -80 3 -103 24 -14 14 -26 30 -26 37 0 6
18 34 40 60 40 48 80 123 80 150 0 7 9 31 21 53 16 31 30 43 66 55 26 9 57 16
71 16 13 0 51 7 85 15 191 46 182 45 255 25 65 -18 83 -24 202 -70 30 -12 69
-25 85 -30 17 -5 55 -18 85 -30 140 -54 126 -53 189 -11 66 45 173 118 256
177 33 23 67 43 75 43 8 1 35 -29 58 -65z m222 -741 c0 -162 -25 -329 -70
-463 -17 -50 -72 -183 -82 -196 -4 -6 -20 -33 -34 -60 -77 -145 -281 -366
-428 -461 -168 -110 -322 -174 -531 -219 -117 -25 -406 -23 -531 4 -167 36
-298 86 -424 161 -19 11 -42 24 -50 28 -61 28 -233 180 -321 284 -84 99 -201
287 -222 355 -3 11 -15 43 -26 73 -42 111 -81 317 -81 429 0 43 1 44 27 37 15
-3 43 -19 62 -34 32 -25 114 -81 176 -121 66 -43 146 -98 198 -138 l58 -44 -6
-62 c-14 -138 68 -236 199 -236 l53 0 24 -52 c19 -41 37 -62 82 -93 53 -36 64
-40 122 -40 56 0 66 -3 89 -28 32 -34 115 -77 151 -77 14 0 35 5 46 11 17 9
28 5 62 -17 51 -35 102 -54 143 -54 35 0 92 17 113 34 8 6 44 11 82 11 l67 0
59 63 c44 47 66 62 86 62 39 0 98 33 142 78 20 22 62 52 93 67 56 28 112 79
112 103 0 7 26 39 58 70 91 89 97 102 97 213 0 92 10 129 36 129 13 0 40 29
71 78 25 37 76 79 218 179 76 54 80 50 80 -74z m-2120 -463 c3 -3 24 -18 48
-34 23 -16 42 -36 42 -44 0 -20 -39 -62 -57 -62 -21 0 -86 35 -104 56 -22 26
-33 89 -19 114 l11 21 37 -23 c20 -12 39 -24 42 -28z m434 -22 c53 -57 26
-151 -78 -265 -34 -38 -51 -40 -104 -13 -92 48 -102 108 -35 205 22 33 51 70
64 82 45 41 109 37 153 -9z m284 -94 c37 -39 39 -56 12 -115 -29 -62 -39 -77
-89 -131 -38 -41 -50 -48 -82 -48 -45 0 -100 30 -119 65 -12 22 -10 29 26 82
21 32 48 79 60 104 16 34 32 51 65 67 53 27 84 21 127 -24z m165 -74 c34 -27
42 -71 27 -163 -15 -94 -38 -120 -103 -120 -44 0 -107 28 -107 48 0 6 13 29
29 51 38 51 81 129 81 146 0 17 28 58 39 58 5 0 20 -9 34 -20z m139 -47 c2 -5
22 -21 45 -36 53 -36 58 -59 25 -100 -42 -51 -65 -68 -87 -65 -19 3 -20 8 -16
98 3 97 6 110 21 110 4 0 10 -3 12 -7z"/>
</g>
</svg>
