<?xml version="1.0" standalone="no"?>
<!DOCTYPE svg PUBLIC "-//W3C//DTD SVG 20010904//EN"
 "http://www.w3.org/TR/2001/REC-SVG-20010904/DTD/svg10.dtd">
<svg version="1.0" xmlns="http://www.w3.org/2000/svg"
 width="300.000000pt" height="170.000000pt" viewBox="0 0 300.000000 170.000000"
 preserveAspectRatio="xMidYMid meet">
<metadata>
Created by potrace 1.10, written by Peter Selinger 2001-2011
</metadata>
<g transform="translate(0.000000,170.000000) scale(0.050000,-0.050000)"
fill="#00a105" stroke="none">
<path d="M975 2701 c-1214 -222 -1249 -1661 -46 -1891 917 -176 1699 579 1345
1296 -208 420 -791 687 -1299 595z m483 -359 c142 -44 324 -154 311 -188 -28
-73 -180 -98 -322 -54 -153 48 -242 43 -432 -21 -147 -50 -138 -51 -255 26
-126 83 -125 96 17 172 207 110 459 134 681 65z m-733 -274 c91 -86 104 -92
177 -80 85 14 90 10 54 -47 -57 -91 109 -140 209 -61 28 22 65 40 82 40 65 0
454 -255 453 -296 -2 -74 -46 -69 -121 14 -61 67 -86 83 -103 66 -18 -18 -2
-43 61 -104 117 -111 81 -172 -41 -70 -32 28 -67 50 -78 50 -38 0 -16 -54 32
-80 119 -64 56 -97 -70 -37 -193 92 -217 101 -243 92 -15 -5 -52 5 -83 22 -51
30 -60 30 -113 0 -55 -32 -59 -31 -174 40 -64 41 -164 95 -222 122 -140 64
-140 126 0 336 70 104 60 105 180 -7z m1120 17 c106 -121 130 -265 43 -265
-15 0 -58 -28 -97 -62 l-70 -61 -86 69 c-47 38 -137 98 -200 133 -63 36 -119
72 -125 80 -14 24 -115 -1 -168 -42 -43 -34 -142 -52 -142 -26 0 6 15 35 34
65 19 30 35 56 37 59 23 42 240 41 377 -3 l153 -48 95 66 c113 79 110 79 149
35z m115 -372 c0 -665 -1207 -815 -1481 -184 -93 214 -74 245 84 141 58 -38
113 -70 122 -70 8 0 15 -16 15 -36 0 -57 58 -124 108 -124 25 0 62 -18 82 -40
20 -22 57 -40 82 -40 25 0 51 -9 58 -20 7 -11 43 -20 80 -20 37 0 74 -10 81
-21 55 -90 547 174 548 294 1 40 167 207 206 207 8 0 15 -39 15 -87z m-920
-209 c0 -45 -38 -84 -82 -84 -48 0 -59 43 -22 85 40 46 104 46 104 -1z m154
-37 c15 -40 -63 -110 -105 -94 -38 15 -37 45 4 90 41 46 84 47 101 4z m103
-80 c-4 -20 -28 -40 -52 -43 -54 -8 -55 2 -12 68 36 54 76 39 64 -25z"/>
<path d="M5596 2085 c-31 -36 -152 -330 -158 -385 -10 -94 54 -116 73 -25 22
105 74 235 123 312 66 104 36 183 -38 98z"/>
<path d="M2590 2022 c-68 -10 -80 -19 -81 -62 -1 -27 -27 -107 -58 -176 -71
-157 -63 -167 139 -148 209 18 239 78 35 68 -97 -4 -125 1 -125 23 0 48 47 70
160 77 89 5 111 13 117 44 6 34 -2 36 -105 23 -117 -15 -137 0 -77 55 22 20
81 34 155 38 95 5 121 13 126 41 7 38 -107 44 -286 17z"/>
<path d="M4281 2011 c-14 -16 -18 -39 -11 -52 15 -23 -31 -169 -83 -264 -35
-66 9 -100 75 -58 21 13 58 23 83 23 125 1 355 169 355 260 0 103 -347 178
-419 91z m299 -67 l44 -36 -52 -63 c-50 -59 -240 -144 -266 -118 -22 23 64
218 104 234 66 27 123 21 170 -17z"/>
<path d="M3030 1929 c-119 -62 -226 -200 -202 -261 14 -37 114 -36 163 1 52
40 62 38 75 -11 15 -55 62 -39 69 24 3 26 16 88 29 136 20 78 19 91 -14 115
-47 34 -47 34 -120 -4z m70 -79 c0 -39 -166 -161 -177 -129 -9 28 115 159 151
159 14 0 26 -13 26 -30z"/>
<path d="M3325 1918 c-80 -52 -87 -121 -15 -154 74 -34 61 -61 -35 -68 -107
-8 -139 -76 -36 -76 167 0 265 97 172 171 -65 52 -53 89 28 89 53 0 93 41 66
68 -25 25 -118 10 -180 -30z"/>
<path d="M3832 1929 c-18 -18 -32 -48 -32 -67 0 -43 -51 -92 -124 -120 -79
-30 -89 7 -25 91 54 71 46 125 -17 101 -38 -14 -119 -183 -110 -229 8 -38 82
-44 175 -14 l49 16 -43 -69 c-45 -72 -147 -104 -192 -59 -33 33 -73 25 -73
-16 0 -87 186 -110 269 -33 54 51 191 321 191 378 0 46 -33 56 -68 21z"/>
<path d="M4787 1873 c-167 -168 -53 -318 148 -194 106 66 82 109 -28 51 -73
-38 -127 -38 -127 0 0 18 18 30 45 30 74 0 198 96 191 147 -12 86 -125 69
-229 -34z m133 8 c0 -10 -20 -33 -45 -50 -55 -39 -76 -1 -22 40 44 33 67 36
67 10z"/>
<path d="M5177 1894 c-198 -150 -200 -335 -4 -225 l87 48 0 -48 c0 -36 11 -49
40 -49 33 0 40 13 40 74 0 40 11 104 25 141 22 61 20 72 -14 97 -56 40 -78 36
-174 -38z m123 -32 c0 -27 -63 -94 -125 -132 -78 -49 -73 0 9 84 61 63 116 86
116 48z"/>
<path d="M5705 1918 c-80 -52 -87 -121 -15 -154 74 -34 61 -61 -35 -68 -107
-8 -139 -76 -36 -76 179 0 264 96 159 181 l-68 56 50 11 c28 6 68 13 90 16 22
4 43 22 46 41 10 51 -108 46 -191 -7z"/>
</g>
</svg>
